<?xml version="1.0" standalone="no"?>
<!DOCTYPE svg PUBLIC "-//W3C//DTD SVG 20010904//EN"
 "http://www.w3.org/TR/2001/REC-SVG-20010904/DTD/svg10.dtd">
<svg version="1.0" xmlns="http://www.w3.org/2000/svg"
 width="1280.000000pt" height="640.000000pt" viewBox="0 0 1280.000000 640.000000"
 preserveAspectRatio="xMidYMid meet">
<g transform="translate(0.000000,640.000000) scale(0.100000,-0.100000)"
fill="#000000" stroke="none">
<path d="M1166 5068 c-24 -21 -33 -52 -91 -313 -36 -159 -67 -295 -70 -302 -7
-20 -43 -30 -178 -53 -158 -27 -411 -83 -517 -115 -89 -27 -229 -100 -279
-146 -26 -23 -31 -36 -31 -71 0 -43 32 -125 70 -178 35 -49 382 -240 617 -340
67 -29 127 -58 133 -65 12 -14 -12 -188 -61 -439 -16 -82 -29 -160 -29 -172 0
-47 -1 -46 560 -193 190 -49 463 -119 608 -155 243 -61 266 -65 295 -52 18 7
118 76 224 153 105 77 205 146 222 152 27 12 58 6 318 -64 954 -256 1561 -390
2593 -569 1786 -310 3369 -529 4005 -552 l170 -7 104 -65 c57 -35 166 -96 243
-135 152 -78 191 -86 231 -49 13 12 45 26 73 31 78 15 95 25 167 99 l67 70
103 6 c56 3 190 8 297 12 159 5 241 13 440 45 432 70 629 125 835 233 249 130
352 204 456 329 68 80 70 97 23 154 -56 68 -241 271 -299 326 -153 147 -715
519 -1031 682 -125 64 -318 132 -679 240 -360 107 -460 131 -914 221 -903 179
-1700 314 -2626 444 -121 17 -305 44 -410 60 -580 90 -1074 155 -1287 170 -73
5 -191 16 -263 25 -166 21 -333 34 -865 66 -200 12 -615 19 -1129 19 l-325 0
-50 53 c-28 29 -91 99 -141 155 -55 63 -105 109 -130 121 -54 26 -260 54
-1175 161 -96 11 -191 23 -211 26 -29 4 -42 0 -63 -18z"/>
</g>
</svg>
