<?xml version="1.0" standalone="no"?>
<!DOCTYPE svg PUBLIC "-//W3C//DTD SVG 20010904//EN"
 "http://www.w3.org/TR/2001/REC-SVG-20010904/DTD/svg10.dtd">
<svg version="1.0" xmlns="http://www.w3.org/2000/svg"
 width="1280.000000pt" height="853.000000pt" viewBox="0 0 1280.000000 853.000000"
 preserveAspectRatio="xMidYMid meet">
<g transform="translate(0.000000,853.000000) scale(0.100000,-0.100000)"
fill="#000000" stroke="none">
<path d="M1920 6130 c-293 -19 -592 -68 -775 -127 -234 -75 -416 -192 -488
-313 l-37 -64 9 -91 c21 -202 110 -367 338 -623 113 -128 190 -197 428 -386
226 -180 403 -295 660 -432 207 -110 632 -298 930 -411 89 -34 100 -41 100
-63 0 -17 -10 -31 -34 -45 -19 -11 -54 -39 -79 -62 -51 -49 -51 -70 1 -116 18
-15 43 -38 57 -51 14 -12 63 -35 110 -50 117 -39 120 -41 120 -81 0 -23 -11
-48 -36 -80 -37 -49 -41 -77 -11 -83 11 -2 22 6 30 25 23 53 92 142 110 143
10 0 152 -38 315 -84 388 -110 459 -127 567 -133 127 -8 166 5 240 79 48 47
65 59 85 55 14 -2 106 -29 205 -60 99 -31 241 -74 315 -95 121 -35 781 -234
1080 -325 442 -135 1142 -328 1493 -411 459 -109 999 -214 1387 -271 121 -18
119 -16 195 -151 87 -155 135 -182 520 -293 77 -22 167 -43 200 -46 73 -8 58
-22 224 212 67 95 130 174 139 177 9 3 156 10 327 16 438 15 573 38 780 136
81 38 112 48 165 50 49 2 69 -1 82 -13 14 -13 21 -14 30 -5 7 7 40 12 76 12
55 0 65 -3 69 -20 3 -11 6 -20 8 -20 1 0 16 5 34 11 24 8 35 8 46 -1 12 -10
20 0 48 62 49 107 60 138 54 144 -3 3 -17 -13 -31 -35 -15 -23 -30 -41 -34
-41 -17 0 -72 67 -72 88 0 12 12 45 28 72 23 43 25 52 12 60 -24 16 -34 7 -50
-48 -8 -28 -18 -54 -22 -57 -3 -4 -32 -1 -63 5 -53 11 -58 11 -71 -9 -14 -20
-17 -20 -44 -6 -57 29 -154 126 -185 184 -60 111 -121 188 -249 317 -125 124
-271 248 -384 324 -28 19 -54 41 -56 48 -3 6 10 155 29 329 19 174 35 320 35
324 0 14 -474 180 -584 204 -129 29 -165 21 -383 -84 -104 -50 -197 -91 -206
-91 -9 0 -132 58 -274 128 -526 261 -1202 542 -1819 757 -254 88 -1216 397
-1774 569 -118 37 -305 96 -415 131 -887 284 -1964 567 -2510 659 -315 53
-702 75 -995 56z m9999 -3956 c40 -68 32 -88 -23 -54 -52 31 -67 57 -54 86 18
38 41 28 77 -32z"/>
<path d="M11952 1950 c0 -19 2 -27 5 -17 2 9 2 25 0 35 -3 9 -5 1 -5 -18z"/>
</g>
</svg>
